<?xml version="1.0" encoding="UTF-8" standalone="no"?>
<!-- Created with Inkscape (http://www.inkscape.org/) -->

<svg
   width="210mm"
   height="297mm"
   viewBox="0 0 210 297"
   version="1.1"
   id="svg1"
   inkscape:version="1.4.2 (f4327f4, 2025-05-13)"
   sodipodi:docname="Back.svg"
   xmlns:inkscape="http://www.inkscape.org/namespaces/inkscape"
   xmlns:sodipodi="http://sodipodi.sourceforge.net/DTD/sodipodi-0.dtd"
   xmlns="http://www.w3.org/2000/svg"
   xmlns:svg="http://www.w3.org/2000/svg">
  <sodipodi:namedview
     id="namedview1"
     pagecolor="#ffffff"
     bordercolor="#000000"
     borderopacity="0.25"
     inkscape:showpageshadow="2"
     inkscape:pageopacity="0.0"
     inkscape:pagecheckerboard="0"
     inkscape:deskcolor="#d1d1d1"
     inkscape:document-units="mm"
     inkscape:zoom="1.0396254"
     inkscape:cx="396.77752"
     inkscape:cy="561.74078"
     inkscape:window-width="1278"
     inkscape:window-height="1360"
     inkscape:window-x="3193"
     inkscape:window-y="0"
     inkscape:window-maximized="0"
     inkscape:current-layer="layer1" />
  <defs
     id="defs1" />
  <g
     inkscape:label="Layer 1"
     inkscape:groupmode="layer"
     id="layer1">
    <path
       style="fill:#cccccc;stroke-width:0.264583"
       d="m 97.656639,44.742702 c -2.89007,0.455002 -6.119032,1.709018 -8.217801,3.747327 -2.218021,2.154123 -4.359123,5.634753 -4.507136,8.723111 -0.369825,7.716528 11.961439,19.850899 11.961439,19.850899 h 8.143959 c 0,0 10.12466,-13.469204 8.838,-21.117656 -0.57627,-3.425601 -4.14723,-6.506047 -7.0565,-8.404195 -2.67447,-1.744949 -6.00744,-3.296122 -9.161961,-2.799486 z"
       id="path1"
       inkscape:label="na1" />
    <path
       style="fill:#800080;stroke-width:0.264583"
       d="M 97.147642,77.318536 C 88.749183,86.480491 87.591073,85.798139 86.967692,87.752984 86.016768,90.73496 102.49224,127.196 103.83866,123.98563 L 119.03453,87.752983 105.0371,77.064039 Z"
       id="path2"
       sodipodi:nodetypes="cssccc"
       inkscape:label="trap" />
    <path
       id="path4"
       style="fill:#008000;stroke-width:0.264583"
       d="m 118.5964,87.802055 10.17995,9.416452 -4.83548,41.483293 -19.8509,-13.99743 z m -32.575835,0.2545 -9.670952,8.143957 8.398457,43.773778 18.57841,-15.77892 z"
       inkscape:label="lats" />
    <path
       style="fill:#00ffff;stroke-width:0.264583"
       d="m 85.511567,139.71979 c 0,0 18.069413,11.19795 19.850903,9.67095 1.78149,-1.52699 18.8329,-10.17995 18.8329,-10.17995 l -20.1054,-13.99742 z"
       id="path5"
       inkscape:label="lowback" />
    <path
       id="path7"
       style="fill:#cccccc;stroke-width:0.264583"
       d="m 106.88946,77.367608 c 1.27249,0 32.32133,5.089975 32.32133,5.089975 l 10.17995,11.961439 -20.1054,2.290487 z M 95.946014,77.113111 67.696656,82.71208 59.043702,98.236502 75.840616,95.437017 Z"
       inkscape:label="na2" />
    <path
       id="path9"
       style="fill:#ff6600;stroke-width:0.264583"
       d="m 129.79434,96.709509 7.63496,37.411311 20.3599,-4.83548 -8.39846,-34.611821 z m -71.514136,2.03599 c -0.254497,1.781491 -3.562982,32.066841 -3.562982,32.066841 l 16.033419,2.79948 6.107969,-37.920306 z"
       inkscape:label="tricep" />
    <path
       id="path11"
       style="fill:#d40000;stroke-width:0.264583"
       d="m 104.08997,150.66324 0.509,14.76092 25.44987,1.52699 -6.36247,-27.48586 -19.5964,11.19795 -19.850898,-10.17995 c 0,3.81748 -2.799484,27.23136 -2.799484,27.23136 l 23.817572,-2.1696 -1.16719,-14.88181"
       sodipodi:nodetypes="ccccccccc"
       inkscape:label="glutes" />
    <path
       id="path13"
       style="fill:#ffff00;stroke-width:0.264583"
       d="m 109.68894,166.44216 c 0.2545,2.03599 5.59898,40.21079 6.61697,39.9563 1.018,-0.2545 22.90488,1.27249 22.39589,-1.018 -0.509,-2.29049 -8.65296,-38.9383 -8.65296,-38.9383 z m -27.994855,1.78149 -4.835475,36.64781 21.886889,1.78149 4.071981,-40.97429 z"
       inkscape:label="hamstring" />
    <path
       id="path15"
       style="fill:#000080;stroke-width:0.264583"
       d="m 116.30591,206.90745 6.10797,36.64782 c 0,0 18.06941,1.01799 18.06941,-1.78149 0,-2.79949 -2.03599,-36.39332 -2.03599,-36.39332 z m -38.938302,-1.78149 -1.78149,36.90232 18.069409,0.76349 4.580975,-35.62982 z"
       inkscape:label="calves" />
    <path
       id="path17"
       style="fill:#b3b3b3;stroke-width:0.264583"
       d="m 122.92288,244.06426 4.07198,27.99487 -3.30849,7.63495 3.05399,3.30848 8.14396,0.25451 4.83547,-3.30849 1.018,-37.41131 z m -47.082264,-1.52699 1.781492,24.94087 0.508997,9.16196 3.053983,3.05398 7.380464,1.27249 4.07198,-3.56299 -2.29049,-9.16194 3.053985,-25.19537 z"
       inkscape:label="na3" />
  </g>
</svg>
